
<svg xmlns="http://www.w3.org/2000/svg" width="31" height="30" viewBox="0 0 31 30">
  <defs>
    <style>
      .cls-1 {
        fill: #ffffff;
        fill-rule: evenodd;
      }
    </style>
  </defs>
  <path id="Logo" class="cls-1" d="M41.988,48.992a5.857,5.857,0,0,0,1.928.326v0.052l0.008-.052A6.251,6.251,0,0,0,46.608,37.51l-0.051-.026,0.006-.01-7.957-4.531a7.306,7.306,0,0,1-2.972.959l5.994,3.407-0.1.042a6.249,6.249,0,0,0-3.69,5.735,6.421,6.421,0,0,0,.486,2.443,8.525,8.525,0,0,0,1.941-1.315,3.961,3.961,0,0,1-.163-1.128,3.921,3.921,0,0,1,1.114-2.758,3.741,3.741,0,0,1,2.7-1.15,3.917,3.917,0,0,1,.413,7.8A13.537,13.537,0,0,1,41.988,48.992ZM21,38.31a6.321,6.321,0,0,0-2,4.615,6.165,6.165,0,0,0,6.075,6.233V49.21l0.006-.052a5.924,5.924,0,0,0,2.784-.694,7.142,7.142,0,0,0,.686-0.425l7.86-4.859V42.973A7.835,7.835,0,0,1,37,40.1l-5.9,3.642,0.012-.106a6.01,6.01,0,0,0,.043-0.713,6.155,6.155,0,0,0-5.407-6.194c-0.012.159-.019,0.326-0.021,0.511a9.114,9.114,0,0,0,.154,1.852,3.949,3.949,0,0,1,1.433,6.994l-0.555.346a3.624,3.624,0,0,1-1.68.4,3.868,3.868,0,0,1-3.817-3.908,3.955,3.955,0,0,1,.287-1.488A14.217,14.217,0,0,1,21,38.31Zm7.863-2.016a7.665,7.665,0,0,1,2.262,2.114l0-7.33,0.082,0.066a5.941,5.941,0,0,0,3.63,1.327h0.105A5.976,5.976,0,0,0,39.692,30.1a8.66,8.66,0,0,0-2.032-1.128,3.735,3.735,0,0,1-2.717,1.173H34.876a3.85,3.85,0,0,1-3.746-3.831V26.1a3.848,3.848,0,0,1,3.81-3.777H35a3.792,3.792,0,0,1,3.047,1.654,13.065,13.065,0,0,1,2.875,1.171A6.117,6.117,0,0,0,35.04,20h-0.1a6.149,6.149,0,0,0-6.059,5.849l0,0.056-0.013,0v0.153c0,0.016,0,.029,0,0.043a0.306,0.306,0,0,0,0,.034c0,0.026,0,.05,0,0.073s0,0.041,0,.062Zm-3.932,8.991a0.856,0.856,0,0,0,.087,0h0.009a2.307,2.307,0,0,0,1.958-1.08A10.487,10.487,0,0,1,27.426,30.1v-3a12.162,12.162,0,0,0-1.521,1.305A12.843,12.843,0,0,0,24.929,45.285Zm19.235-10.8,2.565,1.459a12.609,12.609,0,0,0-3.375-7.311,12.085,12.085,0,0,0-8.631-3.839,13.487,13.487,0,0,0-1.678.087,2.407,2.407,0,0,0-.211,2.355,9.5,9.5,0,0,1,1.852-.143,9.834,9.834,0,0,1,7.057,3.142A10.332,10.332,0,0,1,44.164,34.483ZM29.794,49.041a11.95,11.95,0,0,0,4.52.959h0.207a12.045,12.045,0,0,0,8.613-3.614,12.613,12.613,0,0,0,2.824-4.365,2.3,2.3,0,0,0-1.93-1.273,10.372,10.372,0,0,1-2.465,4.005,9.859,9.859,0,0,1-7.042,2.956q-0.085,0-.171,0a9.8,9.8,0,0,1-2-.246Z" transform="translate(-19 -20)"/>
</svg>
